M48
;Layer_Color=9474304
;FILE_FORMAT=2:5
INCH,LZ
;TYPE=PLATED
T1F00S00C0.02800
T2F00S00C0.04016
T3F00S00C0.07874
;TYPE=NON_PLATED
T4F00S00C0.06693
%
T01
X03128Y01132
X02792Y01974
X0187Y01645
X01553Y01819
X01618Y01304
X01625Y01041
X00983Y0098661
X00894Y01163
X0109559Y0066718
X01055Y00598
X00433Y01254
T02
X0215Y00295
Y00395
X02125Y0092
Y0102
X02075Y02015
Y02115
X02245
Y02015
X019
Y02115
X0134Y018
Y017
X02565Y0238
Y0248
T03
X005Y022148
Y030652
X01185Y030602
Y022098
T04
X0277441Y0026
X0305
M30
