G04*
G04 #@! TF.GenerationSoftware,Altium Limited,Altium Designer,21.5.1 (32)*
G04*
G04 Layer_Color=255*
%FSLAX25Y25*%
%MOIN*%
G70*
G04*
G04 #@! TF.SameCoordinates,DAD435CF-6C14-4571-BFE5-B678BFDF4ED4*
G04*
G04*
G04 #@! TF.FilePolarity,Positive*
G04*
G01*
G75*
%ADD14R,0.15590X0.15590*%
%ADD15R,0.06102X0.06102*%
%ADD16R,0.08661X0.11024*%
%ADD17R,0.11024X0.11024*%
%ADD18R,0.05709X0.03740*%
%ADD19R,0.01322X0.04583*%
G04:AMPARAMS|DCode=20|XSize=45.83mil|YSize=13.22mil|CornerRadius=6.61mil|HoleSize=0mil|Usage=FLASHONLY|Rotation=90.000|XOffset=0mil|YOffset=0mil|HoleType=Round|Shape=RoundedRectangle|*
%AMROUNDEDRECTD20*
21,1,0.04583,0.00000,0,0,90.0*
21,1,0.03260,0.01322,0,0,90.0*
1,1,0.01322,0.00000,0.01630*
1,1,0.01322,0.00000,-0.01630*
1,1,0.01322,0.00000,-0.01630*
1,1,0.01322,0.00000,0.01630*
%
%ADD20ROUNDEDRECTD20*%
G04:AMPARAMS|DCode=21|XSize=97.4mil|YSize=24.49mil|CornerRadius=12.25mil|HoleSize=0mil|Usage=FLASHONLY|Rotation=90.000|XOffset=0mil|YOffset=0mil|HoleType=Round|Shape=RoundedRectangle|*
%AMROUNDEDRECTD21*
21,1,0.09740,0.00000,0,0,90.0*
21,1,0.07291,0.02449,0,0,90.0*
1,1,0.02449,0.00000,0.03646*
1,1,0.02449,0.00000,-0.03646*
1,1,0.02449,0.00000,-0.03646*
1,1,0.02449,0.00000,0.03646*
%
%ADD21ROUNDEDRECTD21*%
%ADD22R,0.02449X0.09740*%
%ADD23R,0.06102X0.06102*%
%ADD31C,0.06181*%
%ADD32R,0.06181X0.06181*%
%ADD34C,0.11811*%
%ADD35C,0.06693*%
D14*
X118500Y263500D02*
D03*
X50000Y264000D02*
D03*
D15*
X101000Y182000D02*
D03*
Y174913D02*
D03*
X298500Y166043D02*
D03*
Y158957D02*
D03*
X148000Y33957D02*
D03*
Y41043D02*
D03*
X72207Y16052D02*
D03*
Y23138D02*
D03*
X75000Y174457D02*
D03*
Y181543D02*
D03*
D16*
X301457Y11433D02*
D03*
X309331Y40567D02*
D03*
D17*
X272323D02*
D03*
D18*
X229500Y34161D02*
D03*
Y41839D02*
D03*
X217000Y161161D02*
D03*
Y168839D02*
D03*
X44500Y176661D02*
D03*
Y184339D02*
D03*
X121000Y98661D02*
D03*
Y106339D02*
D03*
X81000Y100000D02*
D03*
Y92323D02*
D03*
X271500Y242661D02*
D03*
Y250339D02*
D03*
X179500Y36161D02*
D03*
Y43839D02*
D03*
X21149Y19630D02*
D03*
Y27307D02*
D03*
X227000Y98661D02*
D03*
Y106339D02*
D03*
X176000Y123823D02*
D03*
Y131500D02*
D03*
X148000Y98661D02*
D03*
Y106339D02*
D03*
X148500Y176661D02*
D03*
Y184339D02*
D03*
D19*
X39941Y97468D02*
D03*
X104441Y34968D02*
D03*
X256941Y159968D02*
D03*
X174941D02*
D03*
D20*
X42500Y97468D02*
D03*
X45059D02*
D03*
Y103532D02*
D03*
X39941D02*
D03*
X107000Y34968D02*
D03*
X109559D02*
D03*
Y41032D02*
D03*
X104441D02*
D03*
X259500Y159968D02*
D03*
X262059D02*
D03*
Y166032D02*
D03*
X256941D02*
D03*
X177500Y159968D02*
D03*
X180059D02*
D03*
Y166032D02*
D03*
X174941D02*
D03*
D21*
X306000Y299512D02*
D03*
X311000D02*
D03*
X316000D02*
D03*
X321000D02*
D03*
Y280488D02*
D03*
X316000D02*
D03*
X311000D02*
D03*
D22*
X306000D02*
D03*
D23*
X236457Y298000D02*
D03*
X243543D02*
D03*
X213957D02*
D03*
X221043D02*
D03*
X190913Y297000D02*
D03*
X198000D02*
D03*
X233457Y249500D02*
D03*
X240543D02*
D03*
X210957D02*
D03*
X218043D02*
D03*
X188457D02*
D03*
X195543D02*
D03*
D31*
X224500Y211500D02*
D03*
X207500D02*
D03*
X190000D02*
D03*
X256500Y248000D02*
D03*
X215000Y39500D02*
D03*
X212500Y102000D02*
D03*
X134000Y180000D02*
D03*
D32*
X224500Y201500D02*
D03*
X207500D02*
D03*
X190000D02*
D03*
X256500Y238000D02*
D03*
X215000Y29500D02*
D03*
X212500Y92000D02*
D03*
X134000Y170000D02*
D03*
D34*
X118500Y306020D02*
D03*
Y220980D02*
D03*
X50000Y306520D02*
D03*
Y221480D02*
D03*
D35*
X305000Y26000D02*
D03*
X277441D02*
D03*
M02*
