G04*
G04 #@! TF.GenerationSoftware,Altium Limited,Altium Designer,21.5.1 (32)*
G04*
G04 Layer_Color=32768*
%FSLAX25Y25*%
%MOIN*%
G70*
G04*
G04 #@! TF.SameCoordinates,DAD435CF-6C14-4571-BFE5-B678BFDF4ED4*
G04*
G04*
G04 #@! TF.FilePolarity,Positive*
G04*
G01*
G75*
%ADD10C,0.00787*%
%ADD37C,0.00394*%
%ADD38C,0.00197*%
D10*
X226252Y31898D02*
Y44102D01*
X232748D01*
Y31898D02*
Y44102D01*
X226252Y31898D02*
X232748D01*
X213752Y158898D02*
Y171102D01*
X220248D01*
Y158898D02*
Y171102D01*
X213752Y158898D02*
X220248D01*
X41252Y174398D02*
Y186602D01*
X47748D01*
Y174398D02*
Y186602D01*
X41252Y174398D02*
X47748D01*
X117752Y96398D02*
Y108602D01*
X124248D01*
Y96398D02*
Y108602D01*
X117752Y96398D02*
X124248D01*
X84248Y90059D02*
Y102264D01*
X77752Y90059D02*
X84248D01*
X77752D02*
Y102264D01*
X84248D01*
X38169Y94783D02*
Y106217D01*
X46831D01*
Y94783D02*
Y106217D01*
X38169Y94783D02*
X46831D01*
X301886Y273649D02*
X325114D01*
Y306351D01*
X301886D02*
X325114D01*
X301886Y273649D02*
Y306351D01*
X218850Y195358D02*
X230150D01*
Y217642D01*
X218850D02*
X230150D01*
X218850Y195358D02*
Y217642D01*
X201850Y195358D02*
X213150D01*
Y217642D01*
X201850D02*
X213150D01*
X201850Y195358D02*
Y217642D01*
X184350Y195358D02*
X195650D01*
Y217642D01*
X184350D02*
X195650D01*
X184350Y195358D02*
Y217642D01*
X268252Y240398D02*
Y252602D01*
X274748D01*
Y240398D02*
Y252602D01*
X268252Y240398D02*
X274748D01*
X250850Y231858D02*
X262150D01*
Y254142D01*
X250850D02*
X262150D01*
X250850Y231858D02*
Y254142D01*
X209350Y23358D02*
X220650D01*
Y45642D01*
X209350D02*
X220650D01*
X209350Y23358D02*
Y45642D01*
X176252Y33898D02*
Y46102D01*
X182748D01*
Y33898D02*
Y46102D01*
X176252Y33898D02*
X182748D01*
X102669Y32283D02*
Y43717D01*
X111331D01*
Y32283D02*
Y43717D01*
X102669Y32283D02*
X111331D01*
X17902Y17366D02*
Y29571D01*
X24398D01*
Y17366D02*
Y29571D01*
X17902Y17366D02*
X24398D01*
X223752Y96398D02*
Y108602D01*
X230248D01*
Y96398D02*
Y108602D01*
X223752Y96398D02*
X230248D01*
X206850Y85858D02*
X218150D01*
Y108142D01*
X206850D02*
X218150D01*
X206850Y85858D02*
Y108142D01*
X172752Y121559D02*
Y133764D01*
X179248D01*
Y121559D02*
Y133764D01*
X172752Y121559D02*
X179248D01*
X144752Y96398D02*
Y108602D01*
X151248D01*
Y96398D02*
Y108602D01*
X144752Y96398D02*
X151248D01*
X255169Y157283D02*
Y168717D01*
X263831D01*
Y157283D02*
Y168717D01*
X255169Y157283D02*
X263831D01*
X173169D02*
Y168717D01*
X181831D01*
Y157283D02*
Y168717D01*
X173169Y157283D02*
X181831D01*
X145252Y174398D02*
Y186602D01*
X151748D01*
Y174398D02*
Y186602D01*
X145252Y174398D02*
X151748D01*
X128350Y163858D02*
X139650D01*
Y186142D01*
X128350D02*
X139650D01*
X128350Y163858D02*
Y186142D01*
D37*
X99032Y178457D02*
X102969D01*
X101000Y176488D02*
Y180425D01*
X296532Y162500D02*
X300469D01*
X298500Y160531D02*
Y164469D01*
X238031Y298000D02*
X241969D01*
X240000Y296031D02*
Y299969D01*
X215531Y298000D02*
X219469D01*
X217500Y296031D02*
Y299969D01*
X192488Y297000D02*
X196425D01*
X194457Y295031D02*
Y298969D01*
X235031Y249500D02*
X238969D01*
X237000Y247531D02*
Y251469D01*
X212531Y249500D02*
X216469D01*
X214500Y247531D02*
Y251469D01*
X190031Y249500D02*
X193969D01*
X192000Y247531D02*
Y251469D01*
X148000Y35531D02*
Y39469D01*
X146032Y37500D02*
X149969D01*
X72207Y17627D02*
Y21564D01*
X70239Y19595D02*
X74176D01*
X75000Y176031D02*
Y179969D01*
X73032Y178000D02*
X76969D01*
D38*
X149484Y221020D02*
Y305980D01*
X125390Y221177D02*
X149484Y221020D01*
X125390Y214287D02*
Y221177D01*
X111610Y214287D02*
X125390D01*
X111610D02*
Y221020D01*
X87516D02*
X111610D01*
X87516D02*
Y305980D01*
X111610D01*
Y312713D01*
X125390D01*
Y305980D02*
Y312713D01*
Y305980D02*
X149484D01*
X106118Y169795D02*
Y187118D01*
X95882Y169795D02*
Y187118D01*
X106118D01*
X95882Y169795D02*
X106118D01*
X303618Y153839D02*
Y171161D01*
X293382Y153839D02*
Y171161D01*
X303618D01*
X293382Y153839D02*
X303618D01*
X260709Y4937D02*
X319764D01*
X260709D02*
Y47063D01*
X319764D01*
Y4937D02*
Y15173D01*
X329606D01*
Y36827D01*
X319764D02*
X329606D01*
X319764D02*
Y47063D01*
X19016Y221520D02*
X43110D01*
Y214787D02*
Y221520D01*
Y214787D02*
X56890D01*
Y221520D01*
X80984D01*
Y306480D01*
X56890D02*
X80984D01*
X56890D02*
Y313213D01*
X43110D02*
X56890D01*
X43110Y306323D02*
Y313213D01*
X19016Y306480D02*
X43110Y306323D01*
X19016Y221520D02*
Y306480D01*
X231339Y292882D02*
Y303118D01*
X248661Y292882D02*
Y303118D01*
X231339D02*
X248661D01*
X231339Y292882D02*
X248661D01*
X208839D02*
Y303118D01*
X226161Y292882D02*
Y303118D01*
X208839D02*
X226161D01*
X208839Y292882D02*
X226161D01*
X185795Y291882D02*
Y302118D01*
X203118Y291882D02*
Y302118D01*
X185795D02*
X203118D01*
X185795Y291882D02*
X203118D01*
X228339Y244382D02*
Y254618D01*
X245661Y244382D02*
Y254618D01*
X228339D02*
X245661D01*
X228339Y244382D02*
X245661D01*
X205839D02*
Y254618D01*
X223161Y244382D02*
Y254618D01*
X205839D02*
X223161D01*
X205839Y244382D02*
X223161D01*
X183339D02*
Y254618D01*
X200661Y244382D02*
Y254618D01*
X183339D02*
X200661D01*
X183339Y244382D02*
X200661D01*
X142882Y28839D02*
X153118D01*
X142882Y46161D02*
X153118D01*
X142882Y28839D02*
Y46161D01*
X153118Y28839D02*
Y46161D01*
X67089Y10934D02*
X77326D01*
X67089Y28256D02*
X77326D01*
X67089Y10934D02*
Y28256D01*
X77326Y10934D02*
Y28256D01*
X69882Y169339D02*
X80118D01*
X69882Y186661D02*
X80118D01*
X69882Y169339D02*
Y186661D01*
X80118Y169339D02*
Y186661D01*
M02*
