G04*
G04 #@! TF.GenerationSoftware,Altium Limited,Altium Designer,21.5.1 (32)*
G04*
G04 Layer_Color=65535*
%FSLAX25Y25*%
%MOIN*%
G70*
G04*
G04 #@! TF.SameCoordinates,DAD435CF-6C14-4571-BFE5-B678BFDF4ED4*
G04*
G04*
G04 #@! TF.FilePolarity,Positive*
G04*
G01*
G75*
%ADD10C,0.00787*%
%ADD11C,0.00984*%
%ADD12C,0.00500*%
%ADD13C,0.01000*%
D10*
X322323Y38992D02*
G03*
X322323Y38992I-394J0D01*
G01*
X226744Y37508D02*
Y38492D01*
X232256Y37508D02*
Y38492D01*
X214244Y164508D02*
Y165492D01*
X219756Y164508D02*
Y165492D01*
X41744Y180008D02*
Y180992D01*
X47256Y180008D02*
Y180992D01*
X118244Y102008D02*
Y102992D01*
X123756Y102008D02*
Y102992D01*
X83756Y95669D02*
Y96654D01*
X78244Y95669D02*
Y96654D01*
X47421Y96366D02*
Y104634D01*
X37579Y96366D02*
Y104634D01*
X303854Y287327D02*
X323146D01*
Y292673D01*
X303854D02*
X323146D01*
X303854Y287327D02*
Y292673D01*
X219244Y195752D02*
X229756D01*
Y217248D01*
X219244D02*
X229756D01*
X219244Y195752D02*
Y217248D01*
X202244Y195752D02*
X212756D01*
Y217248D01*
X202244D02*
X212756D01*
X202244Y195752D02*
Y217248D01*
X184744Y195752D02*
X195256D01*
Y217248D01*
X184744D02*
X195256D01*
X184744Y195752D02*
Y217248D01*
X268744Y246008D02*
Y246992D01*
X274256Y246008D02*
Y246992D01*
X251244Y232252D02*
X261756D01*
Y253748D01*
X251244D02*
X261756D01*
X251244Y232252D02*
Y253748D01*
X209744Y23752D02*
X220256D01*
Y45248D01*
X209744D02*
X220256D01*
X209744Y23752D02*
Y45248D01*
X176744Y39508D02*
Y40492D01*
X182256Y39508D02*
Y40492D01*
X111921Y33866D02*
Y42134D01*
X102079Y33866D02*
Y42134D01*
X18394Y22976D02*
Y23961D01*
X23905Y22976D02*
Y23961D01*
X224244Y102008D02*
Y102992D01*
X229756Y102008D02*
Y102992D01*
X207244Y86252D02*
X217756D01*
Y107748D01*
X207244D02*
X217756D01*
X207244Y86252D02*
Y107748D01*
X173244Y127169D02*
Y128154D01*
X178756Y127169D02*
Y128154D01*
X145244Y102008D02*
Y102992D01*
X150756Y102008D02*
Y102992D01*
X264421Y158866D02*
Y167134D01*
X254579Y158866D02*
Y167134D01*
X182421Y158866D02*
Y167134D01*
X172579Y158866D02*
Y167134D01*
X145744Y180008D02*
Y180992D01*
X151256Y180008D02*
Y180992D01*
X128744Y164252D02*
X139256D01*
Y185748D01*
X128744D02*
X139256D01*
X128744Y164252D02*
Y185748D01*
D11*
X40433Y92913D02*
G03*
X40433Y92913I-492J0D01*
G01*
X306295Y271582D02*
G03*
X306295Y271582I-492J0D01*
G01*
X224992Y194197D02*
G03*
X224992Y194197I-492J0D01*
G01*
X207992D02*
G03*
X207992Y194197I-492J0D01*
G01*
X190492D02*
G03*
X190492Y194197I-492J0D01*
G01*
X256992Y230697D02*
G03*
X256992Y230697I-492J0D01*
G01*
X215492Y22197D02*
G03*
X215492Y22197I-492J0D01*
G01*
X104933Y30413D02*
G03*
X104933Y30413I-492J0D01*
G01*
X212992Y84697D02*
G03*
X212992Y84697I-492J0D01*
G01*
X257433Y155413D02*
G03*
X257433Y155413I-492J0D01*
G01*
X175433D02*
G03*
X175433Y155413I-492J0D01*
G01*
X134492Y162697D02*
G03*
X134492Y162697I-492J0D01*
G01*
D12*
X148500Y222004D02*
Y304996D01*
X128500Y222004D02*
X148500D01*
X128500Y304996D02*
X148500D01*
X88500D02*
X108500D01*
X88500Y222004D02*
Y304996D01*
Y222004D02*
X108500D01*
X318780Y35843D02*
Y37811D01*
Y16157D02*
Y35843D01*
Y14189D02*
Y16157D01*
X306575Y14189D02*
X318780D01*
X261693D02*
X296339D01*
X261693D02*
Y37811D01*
X314449D02*
X318780D01*
X278622D02*
X304213D01*
X261693D02*
X266024D01*
X318780Y16157D02*
X328622D01*
Y35843D01*
X318780D02*
X328622D01*
X60000Y305496D02*
X80000D01*
Y222504D02*
Y305496D01*
X60000Y222504D02*
X80000D01*
X20000D02*
X40000D01*
X20000Y305496D02*
X40000D01*
X20000Y222504D02*
Y305496D01*
D13*
X90002Y315999D02*
Y310001D01*
X93001D01*
X94001Y311001D01*
Y312000D01*
X93001Y313000D01*
X90002D01*
X93001D01*
X94001Y314000D01*
Y314999D01*
X93001Y315999D01*
X90002D01*
X96000D02*
X99999D01*
X98000D01*
Y310001D01*
X101998D02*
X103998D01*
X102998D01*
Y315999D01*
X101998Y314999D01*
X268900Y258000D02*
Y263998D01*
X271899D01*
X272899Y262998D01*
Y260999D01*
X271899Y259999D01*
X268900D01*
X270899D02*
X272899Y258000D01*
X276897Y256001D02*
X277897D01*
X278897Y257000D01*
Y261999D01*
X275898D01*
X274898Y260999D01*
Y259000D01*
X275898Y258000D01*
X278897D01*
X280896D02*
X284895Y261999D01*
X290893Y258000D02*
X286894D01*
X290893Y261999D01*
Y262998D01*
X289893Y263998D01*
X287894D01*
X286894Y262998D01*
X292892Y257000D02*
X296891D01*
X298890Y263998D02*
Y258000D01*
X301889D01*
X302889Y259000D01*
Y259999D01*
Y260999D01*
X301889Y261999D01*
X298890D01*
X96800Y190200D02*
Y196198D01*
X100799Y190200D01*
Y196198D01*
X112795Y195198D02*
X111795Y196198D01*
X109796D01*
X108796Y195198D01*
Y191200D01*
X109796Y190200D01*
X111795D01*
X112795Y191200D01*
X118793Y190200D02*
X114794D01*
X118793Y194199D01*
Y195198D01*
X117793Y196198D01*
X115794D01*
X114794Y195198D01*
X302500Y315698D02*
Y310700D01*
X303500Y309700D01*
X305499D01*
X306499Y310700D01*
Y315698D01*
X312497Y309700D02*
X308498D01*
X312497Y313699D01*
Y314698D01*
X311497Y315698D01*
X309498D01*
X308498Y314698D01*
X242999Y17505D02*
X237001D01*
Y20504D01*
X238001Y21504D01*
X240000D01*
X241000Y20504D01*
Y17505D01*
Y19505D02*
X242999Y21504D01*
X244999Y25503D02*
Y26503D01*
X243999Y27502D01*
X239001D01*
Y24503D01*
X240000Y23504D01*
X242000D01*
X242999Y24503D01*
Y27502D01*
Y29502D02*
X239001Y33500D01*
X242999Y39498D02*
Y35500D01*
X239001Y39498D01*
X238001D01*
X237001Y38499D01*
Y36499D01*
X238001Y35500D01*
X243999Y41498D02*
Y45496D01*
X239001Y48496D02*
Y50495D01*
X240000Y51494D01*
X242999D01*
Y48496D01*
X242000Y47496D01*
X241000Y48496D01*
Y51494D01*
X28499Y117996D02*
Y119995D01*
X27499Y120994D01*
X23500D01*
X22501Y119995D01*
Y117996D01*
X23500Y116996D01*
X27499D01*
X28499Y117996D01*
X20501Y114996D02*
X26499D01*
Y111997D01*
X25500Y110998D01*
X23500D01*
X22501Y111997D01*
Y114996D01*
Y108998D02*
X26499D01*
X28499Y106999D01*
X26499Y105000D01*
X22501D01*
X25500D01*
Y108998D01*
X22501Y103000D02*
X26499D01*
Y102001D01*
X25500Y101001D01*
X22501D01*
X25500D01*
X26499Y100001D01*
X25500Y99002D01*
X22501D01*
X20501Y97002D02*
X26499D01*
Y94003D01*
X25500Y93003D01*
X23500D01*
X22501Y94003D01*
Y97002D01*
Y88005D02*
X28499D01*
X25500Y91004D01*
Y87006D01*
X105699Y55098D02*
X103700D01*
X102700Y54098D01*
Y50100D01*
X103700Y49100D01*
X105699D01*
X106699Y50100D01*
Y54098D01*
X105699Y55098D01*
X108698Y47101D02*
Y53099D01*
X111697D01*
X112697Y52099D01*
Y50100D01*
X111697Y49100D01*
X108698D01*
X114696D02*
Y53099D01*
X116695Y55098D01*
X118695Y53099D01*
Y49100D01*
Y52099D01*
X114696D01*
X120694Y49100D02*
Y53099D01*
X121694D01*
X122694Y52099D01*
Y49100D01*
Y52099D01*
X123693Y53099D01*
X124693Y52099D01*
Y49100D01*
X126692Y47101D02*
Y53099D01*
X129691D01*
X130691Y52099D01*
Y50100D01*
X129691Y49100D01*
X126692D01*
X132690Y54098D02*
X133690Y55098D01*
X135689D01*
X136689Y54098D01*
Y53099D01*
X135689Y52099D01*
X134690D01*
X135689D01*
X136689Y51099D01*
Y50100D01*
X135689Y49100D01*
X133690D01*
X132690Y50100D01*
X176199Y180098D02*
X174200D01*
X173200Y179098D01*
Y175100D01*
X174200Y174100D01*
X176199D01*
X177199Y175100D01*
Y179098D01*
X176199Y180098D01*
X179198Y172101D02*
Y178099D01*
X182197D01*
X183197Y177099D01*
Y175100D01*
X182197Y174100D01*
X179198D01*
X185196D02*
Y178099D01*
X187196Y180098D01*
X189195Y178099D01*
Y174100D01*
Y177099D01*
X185196D01*
X191194Y174100D02*
Y178099D01*
X192194D01*
X193193Y177099D01*
Y174100D01*
Y177099D01*
X194193Y178099D01*
X195193Y177099D01*
Y174100D01*
X197192Y172101D02*
Y178099D01*
X200191D01*
X201191Y177099D01*
Y175100D01*
X200191Y174100D01*
X197192D01*
X207189D02*
X203190D01*
X207189Y178099D01*
Y179098D01*
X206189Y180098D01*
X204190D01*
X203190Y179098D01*
X258199Y180098D02*
X256200D01*
X255200Y179098D01*
Y175100D01*
X256200Y174100D01*
X258199D01*
X259199Y175100D01*
Y179098D01*
X258199Y180098D01*
X261198Y172101D02*
Y178099D01*
X264197D01*
X265197Y177099D01*
Y175100D01*
X264197Y174100D01*
X261198D01*
X267196D02*
Y178099D01*
X269196Y180098D01*
X271195Y178099D01*
Y174100D01*
Y177099D01*
X267196D01*
X273194Y174100D02*
Y178099D01*
X274194D01*
X275194Y177099D01*
Y174100D01*
Y177099D01*
X276193Y178099D01*
X277193Y177099D01*
Y174100D01*
X279192Y172101D02*
Y178099D01*
X282191D01*
X283191Y177099D01*
Y175100D01*
X282191Y174100D01*
X279192D01*
X285190D02*
X287190D01*
X286190D01*
Y180098D01*
X285190Y179098D01*
X28499Y169504D02*
X22501D01*
X28499Y173502D01*
X22501D01*
X28499Y181500D02*
X22501D01*
Y184499D01*
X23501Y185498D01*
X25500D01*
X26500Y184499D01*
Y181500D01*
Y183499D02*
X28499Y185498D01*
X23501Y187498D02*
X22501Y188497D01*
Y190497D01*
X23501Y191497D01*
X24500D01*
X25500Y190497D01*
Y189497D01*
Y190497D01*
X26500Y191497D01*
X27499D01*
X28499Y190497D01*
Y188497D01*
X27499Y187498D01*
X145400Y112000D02*
Y117998D01*
X149399Y112000D01*
Y117998D01*
X157396Y112000D02*
Y117998D01*
X160395D01*
X161395Y116998D01*
Y114999D01*
X160395Y113999D01*
X157396D01*
X159396D02*
X161395Y112000D01*
X167393D02*
X163394D01*
X167393Y115999D01*
Y116998D01*
X166393Y117998D01*
X164394D01*
X163394Y116998D01*
X104001Y109997D02*
X109999D01*
X104001Y105998D01*
X109999D01*
X104001Y98001D02*
X109999D01*
Y95002D01*
X108999Y94002D01*
X107000D01*
X106000Y95002D01*
Y98001D01*
Y96001D02*
X104001Y94002D01*
Y92003D02*
Y90003D01*
Y91003D01*
X109999D01*
X108999Y92003D01*
X311999Y150003D02*
X306001D01*
X311999Y154002D01*
X306001D01*
X307001Y165998D02*
X306001Y164998D01*
Y162999D01*
X307001Y161999D01*
X310999D01*
X311999Y162999D01*
Y164998D01*
X310999Y165998D01*
X311999Y167997D02*
Y169997D01*
Y168997D01*
X306001D01*
X307001Y167997D01*
X70800Y189800D02*
Y195798D01*
X74799Y189800D01*
Y195798D01*
X86795Y194798D02*
X85795Y195798D01*
X83796D01*
X82796Y194798D01*
Y190800D01*
X83796Y189800D01*
X85795D01*
X86795Y190800D01*
X88794Y194798D02*
X89794Y195798D01*
X91793D01*
X92793Y194798D01*
Y193799D01*
X91793Y192799D01*
X90794D01*
X91793D01*
X92793Y191799D01*
Y190800D01*
X91793Y189800D01*
X89794D01*
X88794Y190800D01*
X207500Y117498D02*
Y111500D01*
Y114499D01*
X211499D01*
Y117498D01*
Y111500D01*
X213498Y117498D02*
X217497D01*
Y116498D01*
X213498Y112500D01*
Y111500D01*
X129000Y195498D02*
Y189500D01*
Y192499D01*
X132999D01*
Y195498D01*
Y189500D01*
X138997Y195498D02*
X136997Y194498D01*
X134998Y192499D01*
Y190500D01*
X135998Y189500D01*
X137997D01*
X138997Y190500D01*
Y191499D01*
X137997Y192499D01*
X134998D01*
X185000Y226998D02*
Y221000D01*
Y223999D01*
X188999D01*
Y226998D01*
Y221000D01*
X194997Y226998D02*
X190998D01*
Y223999D01*
X192997Y224999D01*
X193997D01*
X194997Y223999D01*
Y222000D01*
X193997Y221000D01*
X191998D01*
X190998Y222000D01*
X210000Y54998D02*
Y49000D01*
Y51999D01*
X213999D01*
Y54998D01*
Y49000D01*
X218997D02*
Y54998D01*
X215998Y51999D01*
X219997D01*
X251500Y263498D02*
Y257500D01*
Y260499D01*
X255499D01*
Y263498D01*
Y257500D01*
X257498Y262498D02*
X258498Y263498D01*
X260497D01*
X261497Y262498D01*
Y261499D01*
X260497Y260499D01*
X259497D01*
X260497D01*
X261497Y259499D01*
Y258500D01*
X260497Y257500D01*
X258498D01*
X257498Y258500D01*
X219500Y226998D02*
Y221000D01*
Y223999D01*
X223499D01*
Y226998D01*
Y221000D01*
X229497D02*
X225498D01*
X229497Y224999D01*
Y225998D01*
X228497Y226998D01*
X226498D01*
X225498Y225998D01*
X202500Y226998D02*
Y221000D01*
Y223999D01*
X206499D01*
Y226998D01*
Y221000D01*
X208498D02*
X210497D01*
X209498D01*
Y226998D01*
X208498Y225998D01*
X145900Y195998D02*
Y190000D01*
X148899D01*
X149899Y191000D01*
Y194998D01*
X148899Y195998D01*
X145900D01*
X151898Y190000D02*
Y195998D01*
X154897D01*
X155897Y194998D01*
Y192999D01*
X154897Y191999D01*
X151898D01*
X153897D02*
X155897Y190000D01*
X157896Y195998D02*
Y190000D01*
X161895D01*
X169892D02*
Y195998D01*
X172891D01*
X173891Y194998D01*
Y192999D01*
X172891Y191999D01*
X169892D01*
X171892D02*
X173891Y190000D01*
X175890Y194998D02*
X176890Y195998D01*
X178889D01*
X179889Y194998D01*
Y193999D01*
X178889Y192999D01*
X177890D01*
X178889D01*
X179889Y191999D01*
Y191000D01*
X178889Y190000D01*
X176890D01*
X175890Y191000D01*
X201006Y151499D02*
Y145501D01*
X204005D01*
X205004Y146501D01*
Y150499D01*
X204005Y151499D01*
X201006D01*
X207004Y145501D02*
Y151499D01*
X210003D01*
X211002Y150499D01*
Y148500D01*
X210003Y147500D01*
X207004D01*
X209003D02*
X211002Y145501D01*
X213002Y151499D02*
Y145501D01*
X217000D01*
X224998D02*
Y151499D01*
X227997D01*
X228996Y150499D01*
Y148500D01*
X227997Y147500D01*
X224998D01*
X226997D02*
X228996Y145501D01*
X234995D02*
X230996D01*
X234995Y149500D01*
Y150499D01*
X233995Y151499D01*
X231996D01*
X230996Y150499D01*
X89001Y78167D02*
X94999D01*
Y81166D01*
X93999Y82165D01*
X90001D01*
X89001Y81166D01*
Y78167D01*
X94999Y84165D02*
X89001D01*
Y87164D01*
X90001Y88163D01*
X92000D01*
X93000Y87164D01*
Y84165D01*
Y86164D02*
X94999Y88163D01*
X89001Y90163D02*
X94999D01*
Y94161D01*
Y102159D02*
X89001D01*
Y105158D01*
X90001Y106158D01*
X92000D01*
X93000Y105158D01*
Y102159D01*
Y104158D02*
X94999Y106158D01*
Y108157D02*
Y110156D01*
Y109157D01*
X89001D01*
X90001Y108157D01*
X233199Y262698D02*
X232199Y263698D01*
X230200D01*
X229200Y262698D01*
Y258700D01*
X230200Y257700D01*
X232199D01*
X233199Y258700D01*
X239197Y263698D02*
X237197Y262698D01*
X235198Y260699D01*
Y258700D01*
X236198Y257700D01*
X238197D01*
X239197Y258700D01*
Y259699D01*
X238197Y260699D01*
X235198D01*
X210699Y262698D02*
X209699Y263698D01*
X207700D01*
X206700Y262698D01*
Y258700D01*
X207700Y257700D01*
X209699D01*
X210699Y258700D01*
X216697Y263698D02*
X212698D01*
Y260699D01*
X214697Y261699D01*
X215697D01*
X216697Y260699D01*
Y258700D01*
X215697Y257700D01*
X213698D01*
X212698Y258700D01*
X188199Y262698D02*
X187199Y263698D01*
X185200D01*
X184200Y262698D01*
Y258700D01*
X185200Y257700D01*
X187199D01*
X188199Y258700D01*
X193197Y257700D02*
Y263698D01*
X190198Y260699D01*
X194197D01*
X236199Y311198D02*
X235199Y312198D01*
X233200D01*
X232200Y311198D01*
Y307200D01*
X233200Y306200D01*
X235199D01*
X236199Y307200D01*
X238198Y311198D02*
X239198Y312198D01*
X241197D01*
X242197Y311198D01*
Y310199D01*
X241197Y309199D01*
X240197D01*
X241197D01*
X242197Y308199D01*
Y307200D01*
X241197Y306200D01*
X239198D01*
X238198Y307200D01*
X213699Y311198D02*
X212699Y312198D01*
X210700D01*
X209700Y311198D01*
Y307200D01*
X210700Y306200D01*
X212699D01*
X213699Y307200D01*
X219697Y306200D02*
X215698D01*
X219697Y310199D01*
Y311198D01*
X218697Y312198D01*
X216698D01*
X215698Y311198D01*
X190699Y310198D02*
X189699Y311198D01*
X187700D01*
X186700Y310198D01*
Y306200D01*
X187700Y305200D01*
X189699D01*
X190699Y306200D01*
X192698Y305200D02*
X194697D01*
X193698D01*
Y311198D01*
X192698Y310198D01*
X21503Y216999D02*
Y211001D01*
X24502D01*
X25501Y212001D01*
Y213000D01*
X24502Y214000D01*
X21503D01*
X24502D01*
X25501Y215000D01*
Y215999D01*
X24502Y216999D01*
X21503D01*
X27501D02*
X31499D01*
X29500D01*
Y211001D01*
X37497D02*
X33499D01*
X37497Y215000D01*
Y215999D01*
X36498Y216999D01*
X34498D01*
X33499Y215999D01*
X173400Y143198D02*
Y137200D01*
X176399D01*
X177399Y138200D01*
Y139199D01*
X176399Y140199D01*
X173400D01*
X176399D01*
X177399Y141199D01*
Y142198D01*
X176399Y143198D01*
X173400D01*
X179398Y137200D02*
Y143198D01*
X182397D01*
X183397Y142198D01*
Y140199D01*
X182397Y139199D01*
X179398D01*
X191394Y137200D02*
Y143198D01*
X194393D01*
X195393Y142198D01*
Y140199D01*
X194393Y139199D01*
X191394D01*
X193394D02*
X195393Y137200D01*
X198392D02*
Y142198D01*
Y140199D01*
X197392D01*
X199392D01*
X198392D01*
Y142198D01*
X199392Y143198D01*
X224400Y117998D02*
Y112000D01*
X227399D01*
X228399Y113000D01*
Y113999D01*
X227399Y114999D01*
X224400D01*
X227399D01*
X228399Y115999D01*
Y116998D01*
X227399Y117998D01*
X224400D01*
X230398Y112000D02*
Y117998D01*
X233397D01*
X234397Y116998D01*
Y114999D01*
X233397Y113999D01*
X230398D01*
X242394Y112000D02*
Y117998D01*
X245393D01*
X246393Y116998D01*
Y114999D01*
X245393Y113999D01*
X242394D01*
X244393D02*
X246393Y112000D01*
X248392Y116998D02*
X249392Y117998D01*
X251391D01*
X252391Y116998D01*
Y115999D01*
X251391Y114999D01*
X250392D01*
X251391D01*
X252391Y113999D01*
Y113000D01*
X251391Y112000D01*
X249392D01*
X248392Y113000D01*
X18500Y38998D02*
Y33000D01*
X21499D01*
X22499Y34000D01*
Y34999D01*
X21499Y35999D01*
X18500D01*
X21499D01*
X22499Y36999D01*
Y37998D01*
X21499Y38998D01*
X18500D01*
X24498Y33000D02*
Y38998D01*
X27497D01*
X28497Y37998D01*
Y35999D01*
X27497Y34999D01*
X24498D01*
X36494Y33000D02*
Y38998D01*
X39493D01*
X40493Y37998D01*
Y35999D01*
X39493Y34999D01*
X36494D01*
X38493D02*
X40493Y33000D01*
X46491D02*
X42492D01*
X46491Y36999D01*
Y37998D01*
X45491Y38998D01*
X43492D01*
X42492Y37998D01*
X176900Y55498D02*
Y49500D01*
X179899D01*
X180899Y50500D01*
Y51499D01*
X179899Y52499D01*
X176900D01*
X179899D01*
X180899Y53499D01*
Y54498D01*
X179899Y55498D01*
X176900D01*
X182898Y49500D02*
Y55498D01*
X185897D01*
X186897Y54498D01*
Y52499D01*
X185897Y51499D01*
X182898D01*
X194894Y49500D02*
Y55498D01*
X197893D01*
X198893Y54498D01*
Y52499D01*
X197893Y51499D01*
X194894D01*
X196894D02*
X198893Y49500D01*
X200892D02*
X202892D01*
X201892D01*
Y55498D01*
X200892Y54498D01*
X68000Y37398D02*
Y31400D01*
X70999D01*
X71999Y32400D01*
Y33399D01*
X70999Y34399D01*
X68000D01*
X70999D01*
X71999Y35399D01*
Y36398D01*
X70999Y37398D01*
X68000D01*
X73998Y31400D02*
Y37398D01*
X76997D01*
X77997Y36398D01*
Y34399D01*
X76997Y33399D01*
X73998D01*
X89993Y36398D02*
X88993Y37398D01*
X86994D01*
X85994Y36398D01*
Y32400D01*
X86994Y31400D01*
X88993D01*
X89993Y32400D01*
X95991Y31400D02*
X91992D01*
X95991Y35399D01*
Y36398D01*
X94991Y37398D01*
X92992D01*
X91992Y36398D01*
X143800Y55298D02*
Y49300D01*
X146799D01*
X147799Y50300D01*
Y51299D01*
X146799Y52299D01*
X143800D01*
X146799D01*
X147799Y53299D01*
Y54298D01*
X146799Y55298D01*
X143800D01*
X149798Y49300D02*
Y55298D01*
X152797D01*
X153797Y54298D01*
Y52299D01*
X152797Y51299D01*
X149798D01*
X165793Y54298D02*
X164793Y55298D01*
X162794D01*
X161794Y54298D01*
Y50300D01*
X162794Y49300D01*
X164793D01*
X165793Y50300D01*
X167792Y49300D02*
X169792D01*
X168792D01*
Y55298D01*
X167792Y54298D01*
M02*
